<svg xmlns="http://www.w3.org/2000/svg" viewBox="0 0 64 64" fill="none">
  <!-- Fork -->
  <g transform="translate(8, 8)">
    <path d="M10 2L10 30M10 30C12.7614 30 15 32.2386 15 35C15 37.7614 12.7614 40 10 40C7.23858 40 5 37.7614 5 35C5 32.2386 7.23858 30 10 30Z" stroke="#c2410c" stroke-width="2.5" stroke-linecap="round" fill="none"/>
    <line x1="10" y1="2" x2="10" y2="22" stroke="#c2410c" stroke-width="2.5" stroke-linecap="round"/>
    <line x1="6" y1="22" x2="14" y2="22" stroke="#c2410c" stroke-width="2" stroke-linecap="round"/>
    <line x1="6" y1="17" x2="14" y2="17" stroke="#c2410c" stroke-width="2" stroke-linecap="round"/>
    <line x1="6" y1="12" x2="14" y2="12" stroke="#c2410c" stroke-width="2" stroke-linecap="round"/>
  </g>
  <!-- Knife -->
  <g transform="translate(34, 4)">
    <path d="M12 4L4 30L4 44C4 46.2091 5.79086 48 8 48L12 48L16 48C18.2091 48 20 46.2091 20 44L20 30L12 4Z" fill="none" stroke="#c2410c" stroke-width="2.5" stroke-linejoin="round"/>
    <path d="M12 4L20 0L20 14" stroke="#c2410c" stroke-width="2.5" stroke-linejoin="round" fill="none"/>
  </g>
</svg>
